<mxfile host="app.diagrams.net" agent="Mozilla/5.0 (Windows NT 10.0; Win64; x64) AppleWebKit/537.36 (KHTML, like Gecko) Chrome/138.0.0.0 Safari/537.36" version="28.1.1">
  <diagram name="Page-1" id="OteSbWdA2ZE-DIGd8uvN">
    <mxGraphModel dx="3293" dy="1110" grid="1" gridSize="10" guides="1" tooltips="1" connect="1" arrows="1" fold="1" page="1" pageScale="1" pageWidth="850" pageHeight="1100" math="0" shadow="0">
      <root>
        <mxCell id="0" />
        <mxCell id="1" parent="0" />
        <mxCell id="-Si1qEhgWz94pLlsSCn9-34" value="Business Resilience UI" style="html=1;outlineConnect=0;whiteSpace=wrap;fillColor=#99FFCC;shape=mxgraph.archimate3.application;appType=serv;archiType=rounded" parent="1" vertex="1">
          <mxGeometry x="970" y="320" width="150" height="75" as="geometry" />
        </mxCell>
        <mxCell id="-Si1qEhgWz94pLlsSCn9-32" value="Business Resilience&lt;div&gt;Service&lt;/div&gt;" style="html=1;outlineConnect=0;whiteSpace=wrap;fillColor=#99FFCC;shape=mxgraph.archimate3.application;appType=serv;archiType=rounded" parent="1" vertex="1">
          <mxGeometry x="970" y="542.5" width="150" height="75" as="geometry" />
        </mxCell>
        <mxCell id="-Si1qEhgWz94pLlsSCn9-120" style="edgeStyle=orthogonalEdgeStyle;rounded=0;orthogonalLoop=1;jettySize=auto;html=1;" parent="1" source="-Si1qEhgWz94pLlsSCn9-36" target="-Si1qEhgWz94pLlsSCn9-31" edge="1">
          <mxGeometry relative="1" as="geometry">
            <Array as="points">
              <mxPoint x="520" y="530" />
              <mxPoint x="520" y="530" />
            </Array>
          </mxGeometry>
        </mxCell>
        <mxCell id="-Si1qEhgWz94pLlsSCn9-155" value="Send Request &amp;amp; Incident&amp;nbsp;&lt;div&gt;Event &amp;amp; Updates&lt;/div&gt;" style="edgeLabel;html=1;align=center;verticalAlign=middle;resizable=0;points=[];" parent="-Si1qEhgWz94pLlsSCn9-120" vertex="1" connectable="0">
          <mxGeometry x="-0.43" y="1" relative="1" as="geometry">
            <mxPoint x="29" y="-1" as="offset" />
          </mxGeometry>
        </mxCell>
        <mxCell id="-Si1qEhgWz94pLlsSCn9-130" style="edgeStyle=orthogonalEdgeStyle;rounded=0;orthogonalLoop=1;jettySize=auto;html=1;exitX=0.5;exitY=1;exitDx=0;exitDy=0;exitPerimeter=0;" parent="1" edge="1">
          <mxGeometry relative="1" as="geometry">
            <mxPoint x="310.5714285714289" y="810" as="targetPoint" />
            <mxPoint x="310" y="565" as="sourcePoint" />
          </mxGeometry>
        </mxCell>
        <mxCell id="-Si1qEhgWz94pLlsSCn9-157" value="Send Request &amp;amp; Incident Data&lt;div&gt;For Analytics&lt;/div&gt;" style="edgeLabel;html=1;align=center;verticalAlign=middle;resizable=0;points=[];" parent="-Si1qEhgWz94pLlsSCn9-130" vertex="1" connectable="0">
          <mxGeometry x="-0.4835" y="1" relative="1" as="geometry">
            <mxPoint x="4" y="-17" as="offset" />
          </mxGeometry>
        </mxCell>
        <mxCell id="-Si1qEhgWz94pLlsSCn9-128" style="edgeStyle=orthogonalEdgeStyle;rounded=0;orthogonalLoop=1;jettySize=auto;html=1;" parent="1" source="-Si1qEhgWz94pLlsSCn9-37" edge="1">
          <mxGeometry relative="1" as="geometry">
            <mxPoint x="370" y="895" as="targetPoint" />
          </mxGeometry>
        </mxCell>
        <mxCell id="-Si1qEhgWz94pLlsSCn9-158" value="Send Ticket Data&amp;nbsp;&lt;div&gt;For Analytics&lt;/div&gt;" style="edgeLabel;html=1;align=center;verticalAlign=middle;resizable=0;points=[];" parent="-Si1qEhgWz94pLlsSCn9-128" vertex="1" connectable="0">
          <mxGeometry x="0.0582" relative="1" as="geometry">
            <mxPoint as="offset" />
          </mxGeometry>
        </mxCell>
        <mxCell id="-Si1qEhgWz94pLlsSCn9-139" style="edgeStyle=orthogonalEdgeStyle;rounded=0;orthogonalLoop=1;jettySize=auto;html=1;" parent="1" source="-Si1qEhgWz94pLlsSCn9-37" target="-Si1qEhgWz94pLlsSCn9-31" edge="1">
          <mxGeometry relative="1" as="geometry">
            <Array as="points">
              <mxPoint x="685" y="700" />
              <mxPoint x="685" y="700" />
            </Array>
          </mxGeometry>
        </mxCell>
        <mxCell id="-Si1qEhgWz94pLlsSCn9-154" value="Send Ticket Event &amp;amp; Updates" style="edgeLabel;html=1;align=center;verticalAlign=middle;resizable=0;points=[];" parent="-Si1qEhgWz94pLlsSCn9-139" vertex="1" connectable="0">
          <mxGeometry x="-0.201" y="-1" relative="1" as="geometry">
            <mxPoint as="offset" />
          </mxGeometry>
        </mxCell>
        <mxCell id="-Si1qEhgWz94pLlsSCn9-37" value="JIRA" style="html=1;outlineConnect=0;whiteSpace=wrap;fillColor=#99ffff;shape=mxgraph.archimate3.application;appType=comp;archiType=square;" parent="1" vertex="1">
          <mxGeometry x="610" y="857.5" width="150" height="75" as="geometry" />
        </mxCell>
        <mxCell id="-Si1qEhgWz94pLlsSCn9-44" style="edgeStyle=orthogonalEdgeStyle;rounded=0;orthogonalLoop=1;jettySize=auto;html=1;entryX=0.5;entryY=0;entryDx=0;entryDy=0;entryPerimeter=0;" parent="1" source="-Si1qEhgWz94pLlsSCn9-34" target="-Si1qEhgWz94pLlsSCn9-32" edge="1">
          <mxGeometry relative="1" as="geometry" />
        </mxCell>
        <mxCell id="-Si1qEhgWz94pLlsSCn9-78" value="Serves UI Layer to Intertact wtih BRWH" style="edgeLabel;html=1;align=center;verticalAlign=middle;resizable=0;points=[];" parent="-Si1qEhgWz94pLlsSCn9-44" vertex="1" connectable="0">
          <mxGeometry x="-0.2171" y="-2" relative="1" as="geometry">
            <mxPoint as="offset" />
          </mxGeometry>
        </mxCell>
        <mxCell id="-Si1qEhgWz94pLlsSCn9-106" value="" style="group" parent="1" vertex="1" connectable="0">
          <mxGeometry x="585" y="450" width="175" height="260" as="geometry" />
        </mxCell>
        <mxCell id="-Si1qEhgWz94pLlsSCn9-145" style="edgeStyle=orthogonalEdgeStyle;rounded=0;orthogonalLoop=1;jettySize=auto;html=1;" parent="-Si1qEhgWz94pLlsSCn9-106" source="-Si1qEhgWz94pLlsSCn9-31" edge="1">
          <mxGeometry relative="1" as="geometry">
            <mxPoint x="-235" y="370" as="targetPoint" />
            <Array as="points">
              <mxPoint x="-234" y="210" />
              <mxPoint x="-234" y="370" />
            </Array>
          </mxGeometry>
        </mxCell>
        <mxCell id="-Si1qEhgWz94pLlsSCn9-156" value="Pull Stats &amp;amp; Analytic Data" style="edgeLabel;html=1;align=center;verticalAlign=middle;resizable=0;points=[];" parent="-Si1qEhgWz94pLlsSCn9-145" vertex="1" connectable="0">
          <mxGeometry x="-0.0934" y="-1" relative="1" as="geometry">
            <mxPoint x="54" y="1" as="offset" />
          </mxGeometry>
        </mxCell>
        <mxCell id="-Si1qEhgWz94pLlsSCn9-31" value="Business Resilience&lt;br&gt;Request Adapter&lt;div&gt;&lt;br&gt;&lt;/div&gt;&lt;div&gt;&lt;br&gt;&lt;/div&gt;&lt;div&gt;&lt;br&gt;&lt;/div&gt;&lt;div&gt;&lt;br&gt;&lt;/div&gt;&lt;div&gt;&lt;br&gt;&lt;/div&gt;&lt;div&gt;&lt;br&gt;&lt;/div&gt;&lt;div&gt;&lt;br&gt;&lt;/div&gt;&lt;div&gt;&lt;br&gt;&lt;/div&gt;&lt;div&gt;&lt;br&gt;&lt;/div&gt;&lt;div&gt;&lt;br&gt;&lt;/div&gt;&lt;div&gt;&lt;br&gt;&lt;/div&gt;&lt;div&gt;&lt;br&gt;&lt;/div&gt;&lt;div&gt;&lt;br&gt;&lt;/div&gt;&lt;div&gt;&lt;br&gt;&lt;/div&gt;" style="html=1;outlineConnect=0;whiteSpace=wrap;fillColor=#99FFCC;shape=mxgraph.archimate3.application;appType=serv;archiType=rounded" parent="-Si1qEhgWz94pLlsSCn9-106" vertex="1">
          <mxGeometry width="175" height="260" as="geometry" />
        </mxCell>
        <mxCell id="-Si1qEhgWz94pLlsSCn9-99" value="Siebel Adapter" style="html=1;outlineConnect=0;whiteSpace=wrap;fillColor=#99FFCC;shape=mxgraph.archimate3.application;appType=interface;archiType=square;" parent="-Si1qEhgWz94pLlsSCn9-106" vertex="1">
          <mxGeometry x="20" y="65.64356435643565" width="135" height="30.89108910891089" as="geometry" />
        </mxCell>
        <mxCell id="-Si1qEhgWz94pLlsSCn9-100" value="SNOW Adapter" style="html=1;outlineConnect=0;whiteSpace=wrap;fillColor=#99FFCC;shape=mxgraph.archimate3.application;appType=interface;archiType=square;" parent="-Si1qEhgWz94pLlsSCn9-106" vertex="1">
          <mxGeometry x="20" y="114.55445544554456" width="135" height="30.89108910891089" as="geometry" />
        </mxCell>
        <mxCell id="-Si1qEhgWz94pLlsSCn9-101" value="JIRA Adapter" style="html=1;outlineConnect=0;whiteSpace=wrap;fillColor=#99FFCC;shape=mxgraph.archimate3.application;appType=interface;archiType=square;" parent="-Si1qEhgWz94pLlsSCn9-106" vertex="1">
          <mxGeometry x="20" y="160.8910891089109" width="135" height="30.89108910891089" as="geometry" />
        </mxCell>
        <mxCell id="-Si1qEhgWz94pLlsSCn9-103" value="iDna Adapter" style="html=1;outlineConnect=0;whiteSpace=wrap;fillColor=#99FFCC;shape=mxgraph.archimate3.application;appType=interface;archiType=square;" parent="-Si1qEhgWz94pLlsSCn9-106" vertex="1">
          <mxGeometry x="20" y="209.8019801980198" width="135" height="30.89108910891089" as="geometry" />
        </mxCell>
        <mxCell id="-Si1qEhgWz94pLlsSCn9-123" value="" style="group;fillColor=none;" parent="1" vertex="1" connectable="0">
          <mxGeometry x="225" y="815" width="180" height="160" as="geometry" />
        </mxCell>
        <mxCell id="-Si1qEhgWz94pLlsSCn9-114" value="" style="shape=mxgraph.networks2.icon;aspect=fixed;fillColor=#FFCC99;strokeColor=#000000;gradientColor=#5B6163;network2IconShadow=1;network2bgFillColor=none;network2Icon=mxgraph.networks2.big_data;network2IconXOffset=-0.0002;network2IconYOffset=0.0015;network2IconW=1;network2IconH= 0.996;" parent="-Si1qEhgWz94pLlsSCn9-123" vertex="1">
          <mxGeometry x="30.04000000000002" width="119.92" height="119.44" as="geometry" />
        </mxCell>
        <mxCell id="-Si1qEhgWz94pLlsSCn9-115" value="&lt;font style=&quot;font-size: 14px;&quot;&gt;iDna Data Warehouse&lt;/font&gt;" style="text;html=1;align=center;verticalAlign=middle;resizable=0;points=[];autosize=1;strokeColor=none;fillColor=none;" parent="-Si1qEhgWz94pLlsSCn9-123" vertex="1">
          <mxGeometry x="10" y="130" width="160" height="30" as="geometry" />
        </mxCell>
        <mxCell id="-Si1qEhgWz94pLlsSCn9-33" value="&lt;div&gt;TTS Workflow Service&lt;/div&gt;" style="html=1;outlineConnect=0;whiteSpace=wrap;fillColor=#99FFCC;shape=mxgraph.archimate3.application;appType=serv;archiType=rounded" parent="1" vertex="1">
          <mxGeometry x="970" y="782.5" width="150" height="75" as="geometry" />
        </mxCell>
        <mxCell id="-Si1qEhgWz94pLlsSCn9-48" value="BRWH Client Comm Service" style="html=1;outlineConnect=0;whiteSpace=wrap;fillColor=#99FFCC;shape=mxgraph.archimate3.application;appType=serv;archiType=rounded" parent="1" vertex="1">
          <mxGeometry x="1450" y="650" width="150" height="75" as="geometry" />
        </mxCell>
        <mxCell id="-Si1qEhgWz94pLlsSCn9-50" style="edgeStyle=orthogonalEdgeStyle;rounded=0;orthogonalLoop=1;jettySize=auto;html=1;" parent="1" source="-Si1qEhgWz94pLlsSCn9-48" target="-Si1qEhgWz94pLlsSCn9-51" edge="1">
          <mxGeometry relative="1" as="geometry">
            <mxPoint x="1695" y="917.5" as="targetPoint" />
            <Array as="points">
              <mxPoint x="1525" y="580" />
              <mxPoint x="1525" y="580" />
            </Array>
          </mxGeometry>
        </mxCell>
        <mxCell id="-Si1qEhgWz94pLlsSCn9-73" value="Send Notification Task" style="edgeLabel;html=1;align=center;verticalAlign=middle;resizable=0;points=[];" parent="-Si1qEhgWz94pLlsSCn9-50" vertex="1" connectable="0">
          <mxGeometry x="-0.0148" y="2" relative="1" as="geometry">
            <mxPoint x="2" y="-1" as="offset" />
          </mxGeometry>
        </mxCell>
        <mxCell id="-Si1qEhgWz94pLlsSCn9-140" style="edgeStyle=orthogonalEdgeStyle;rounded=0;orthogonalLoop=1;jettySize=auto;html=1;entryX=0.5;entryY=0;entryDx=0;entryDy=0;entryPerimeter=0;" parent="1" source="-Si1qEhgWz94pLlsSCn9-32" target="-Si1qEhgWz94pLlsSCn9-33" edge="1">
          <mxGeometry relative="1" as="geometry" />
        </mxCell>
        <mxCell id="-Si1qEhgWz94pLlsSCn9-151" value="Start/Update BRWH Workflow" style="edgeLabel;html=1;align=center;verticalAlign=middle;resizable=0;points=[];" parent="-Si1qEhgWz94pLlsSCn9-140" vertex="1" connectable="0">
          <mxGeometry x="-0.1732" y="1" relative="1" as="geometry">
            <mxPoint x="-1" y="24" as="offset" />
          </mxGeometry>
        </mxCell>
        <mxCell id="-Si1qEhgWz94pLlsSCn9-141" style="edgeStyle=orthogonalEdgeStyle;rounded=0;orthogonalLoop=1;jettySize=auto;html=1;exitX=1;exitY=0.25;exitDx=0;exitDy=0;exitPerimeter=0;" parent="1" source="-Si1qEhgWz94pLlsSCn9-32" target="-Si1qEhgWz94pLlsSCn9-51" edge="1">
          <mxGeometry relative="1" as="geometry">
            <mxPoint x="1400" y="460" as="targetPoint" />
            <Array as="points">
              <mxPoint x="1290" y="560" />
              <mxPoint x="1290" y="460" />
            </Array>
          </mxGeometry>
        </mxCell>
        <mxCell id="-Si1qEhgWz94pLlsSCn9-152" value="Send Notification Task" style="edgeLabel;html=1;align=center;verticalAlign=middle;resizable=0;points=[];" parent="-Si1qEhgWz94pLlsSCn9-141" vertex="1" connectable="0">
          <mxGeometry x="0.0233" y="3" relative="1" as="geometry">
            <mxPoint as="offset" />
          </mxGeometry>
        </mxCell>
        <mxCell id="-Si1qEhgWz94pLlsSCn9-142" style="edgeStyle=orthogonalEdgeStyle;rounded=0;orthogonalLoop=1;jettySize=auto;html=1;entryX=1;entryY=0.5;entryDx=0;entryDy=0;entryPerimeter=0;" parent="1" source="-Si1qEhgWz94pLlsSCn9-48" target="-Si1qEhgWz94pLlsSCn9-33" edge="1">
          <mxGeometry relative="1" as="geometry">
            <Array as="points">
              <mxPoint x="1530" y="820" />
            </Array>
          </mxGeometry>
        </mxCell>
        <mxCell id="-Si1qEhgWz94pLlsSCn9-149" value="Start/Update Client Comm Workflow" style="edgeLabel;html=1;align=center;verticalAlign=middle;resizable=0;points=[];" parent="-Si1qEhgWz94pLlsSCn9-142" vertex="1" connectable="0">
          <mxGeometry x="0.4235" y="3" relative="1" as="geometry">
            <mxPoint x="55" y="-3" as="offset" />
          </mxGeometry>
        </mxCell>
        <mxCell id="-Si1qEhgWz94pLlsSCn9-144" style="edgeStyle=orthogonalEdgeStyle;rounded=0;orthogonalLoop=1;jettySize=auto;html=1;exitX=1;exitY=0.5;exitDx=0;exitDy=0;exitPerimeter=0;entryX=0;entryY=0.5;entryDx=0;entryDy=0;entryPerimeter=0;" parent="1" source="-Si1qEhgWz94pLlsSCn9-31" target="-Si1qEhgWz94pLlsSCn9-32" edge="1">
          <mxGeometry relative="1" as="geometry" />
        </mxCell>
        <mxCell id="-Si1qEhgWz94pLlsSCn9-159" value="Send BRWH Compactible&amp;nbsp;&lt;div&gt;Request&lt;/div&gt;" style="edgeLabel;html=1;align=center;verticalAlign=middle;resizable=0;points=[];" parent="-Si1qEhgWz94pLlsSCn9-144" vertex="1" connectable="0">
          <mxGeometry x="-0.3048" y="1" relative="1" as="geometry">
            <mxPoint x="27" y="1" as="offset" />
          </mxGeometry>
        </mxCell>
        <mxCell id="-Si1qEhgWz94pLlsSCn9-148" style="edgeStyle=orthogonalEdgeStyle;rounded=0;orthogonalLoop=1;jettySize=auto;html=1;exitX=1;exitY=0.75;exitDx=0;exitDy=0;exitPerimeter=0;entryX=0;entryY=0.75;entryDx=0;entryDy=0;entryPerimeter=0;" parent="1" source="-Si1qEhgWz94pLlsSCn9-32" target="-Si1qEhgWz94pLlsSCn9-48" edge="1">
          <mxGeometry relative="1" as="geometry">
            <Array as="points">
              <mxPoint x="1290" y="599" />
              <mxPoint x="1290" y="706" />
            </Array>
          </mxGeometry>
        </mxCell>
        <mxCell id="-Si1qEhgWz94pLlsSCn9-153" value="Send Client Comm Request&amp;nbsp;&lt;div&gt;Created Task&lt;/div&gt;" style="edgeLabel;html=1;align=center;verticalAlign=middle;resizable=0;points=[];" parent="-Si1qEhgWz94pLlsSCn9-148" vertex="1" connectable="0">
          <mxGeometry x="0.0634" y="-2" relative="1" as="geometry">
            <mxPoint as="offset" />
          </mxGeometry>
        </mxCell>
        <mxCell id="-Si1qEhgWz94pLlsSCn9-42" style="edgeStyle=orthogonalEdgeStyle;rounded=0;orthogonalLoop=1;jettySize=auto;html=1;" parent="1" source="-Si1qEhgWz94pLlsSCn9-28" target="-Si1qEhgWz94pLlsSCn9-31" edge="1">
          <mxGeometry relative="1" as="geometry" />
        </mxCell>
        <mxCell id="-Si1qEhgWz94pLlsSCn9-65" value="Send Service Request&amp;nbsp;&lt;div&gt;Created Task&lt;/div&gt;" style="edgeLabel;html=1;align=center;verticalAlign=middle;resizable=0;points=[];" parent="-Si1qEhgWz94pLlsSCn9-42" vertex="1" connectable="0">
          <mxGeometry x="0.1143" y="-1" relative="1" as="geometry">
            <mxPoint x="-74" y="-1" as="offset" />
          </mxGeometry>
        </mxCell>
        <mxCell id="-Si1qEhgWz94pLlsSCn9-161" value="" style="group" parent="1" vertex="1" connectable="0">
          <mxGeometry x="120" y="490" width="270" height="75" as="geometry" />
        </mxCell>
        <mxCell id="-Si1qEhgWz94pLlsSCn9-36" value="SNOW" style="html=1;outlineConnect=0;whiteSpace=wrap;fillColor=#99ffff;shape=mxgraph.archimate3.application;appType=comp;archiType=square;" parent="-Si1qEhgWz94pLlsSCn9-161" vertex="1">
          <mxGeometry x="120" width="150" height="75" as="geometry" />
        </mxCell>
        <mxCell id="-Si1qEhgWz94pLlsSCn9-162" value="" style="group" parent="1" vertex="1" connectable="0">
          <mxGeometry x="1450" y="250" width="150" height="240" as="geometry" />
        </mxCell>
        <mxCell id="-Si1qEhgWz94pLlsSCn9-51" value="Notificatiion Service" style="html=1;outlineConnect=0;whiteSpace=wrap;fillColor=#99ffff;shape=mxgraph.archimate3.application;appType=serv;archiType=rounded" parent="-Si1qEhgWz94pLlsSCn9-162" vertex="1">
          <mxGeometry y="165" width="150" height="75" as="geometry" />
        </mxCell>
        <mxCell id="-Si1qEhgWz94pLlsSCn9-88" value="Requestor" style="shape=umlActor;verticalLabelPosition=bottom;verticalAlign=top;html=1;outlineConnect=0;fillColor=#FFFF99;" parent="-Si1qEhgWz94pLlsSCn9-162" vertex="1">
          <mxGeometry x="60" width="30" height="60" as="geometry" />
        </mxCell>
        <mxCell id="-Si1qEhgWz94pLlsSCn9-89" style="edgeStyle=orthogonalEdgeStyle;rounded=0;orthogonalLoop=1;jettySize=auto;html=1;" parent="-Si1qEhgWz94pLlsSCn9-162" source="-Si1qEhgWz94pLlsSCn9-51" edge="1">
          <mxGeometry relative="1" as="geometry">
            <mxPoint x="75" y="90" as="targetPoint" />
          </mxGeometry>
        </mxCell>
        <mxCell id="-Si1qEhgWz94pLlsSCn9-94" value="Send Email To Requestor" style="edgeLabel;html=1;align=center;verticalAlign=middle;resizable=0;points=[];" parent="-Si1qEhgWz94pLlsSCn9-89" vertex="1" connectable="0">
          <mxGeometry x="-0.17" y="-1" relative="1" as="geometry">
            <mxPoint x="-1" y="-4" as="offset" />
          </mxGeometry>
        </mxCell>
        <mxCell id="lBluYYS4-ISNcS1CGL36-4" style="edgeStyle=orthogonalEdgeStyle;rounded=0;orthogonalLoop=1;jettySize=auto;html=1;exitX=0;exitY=0.75;exitDx=0;exitDy=0;exitPerimeter=0;" edge="1" parent="1" source="-Si1qEhgWz94pLlsSCn9-28">
          <mxGeometry relative="1" as="geometry">
            <mxPoint x="130" y="346" as="targetPoint" />
            <mxPoint x="230" y="350" as="sourcePoint" />
          </mxGeometry>
        </mxCell>
        <mxCell id="lBluYYS4-ISNcS1CGL36-5" value="Send Email&lt;div&gt;Response&lt;/div&gt;" style="edgeLabel;html=1;align=center;verticalAlign=middle;resizable=0;points=[];" vertex="1" connectable="0" parent="lBluYYS4-ISNcS1CGL36-4">
          <mxGeometry x="0.1234" relative="1" as="geometry">
            <mxPoint x="2" as="offset" />
          </mxGeometry>
        </mxCell>
        <mxCell id="lBluYYS4-ISNcS1CGL36-12" style="edgeStyle=orthogonalEdgeStyle;rounded=0;orthogonalLoop=1;jettySize=auto;html=1;exitX=0.5;exitY=0;exitDx=0;exitDy=0;exitPerimeter=0;" edge="1" parent="1" source="-Si1qEhgWz94pLlsSCn9-28">
          <mxGeometry relative="1" as="geometry">
            <mxPoint x="315" y="180" as="targetPoint" />
          </mxGeometry>
        </mxCell>
        <mxCell id="lBluYYS4-ISNcS1CGL36-13" value="Triage Email" style="edgeLabel;html=1;align=center;verticalAlign=middle;resizable=0;points=[];" vertex="1" connectable="0" parent="lBluYYS4-ISNcS1CGL36-12">
          <mxGeometry x="-0.0127" y="3" relative="1" as="geometry">
            <mxPoint y="-2" as="offset" />
          </mxGeometry>
        </mxCell>
        <mxCell id="-Si1qEhgWz94pLlsSCn9-28" value="&lt;div&gt;Dyanmic 365&lt;/div&gt;" style="html=1;outlineConnect=0;whiteSpace=wrap;fillColor=#99ffff;shape=mxgraph.archimate3.application;appType=comp;archiType=square;" parent="1" vertex="1">
          <mxGeometry x="240" y="290" width="150" height="75" as="geometry" />
        </mxCell>
        <mxCell id="-Si1qEhgWz94pLlsSCn9-38" value="Client" style="shape=umlActor;verticalLabelPosition=bottom;verticalAlign=top;html=1;outlineConnect=0;fillColor=#FFFF99;" parent="1" vertex="1">
          <mxGeometry x="90" y="290" width="30" height="60" as="geometry" />
        </mxCell>
        <mxCell id="lBluYYS4-ISNcS1CGL36-8" style="edgeStyle=orthogonalEdgeStyle;rounded=0;orthogonalLoop=1;jettySize=auto;html=1;entryX=0.018;entryY=0.08;entryDx=0;entryDy=0;entryPerimeter=0;" edge="1" parent="1">
          <mxGeometry relative="1" as="geometry">
            <mxPoint x="130" y="309" as="sourcePoint" />
            <mxPoint x="240.00000000000006" y="309.43" as="targetPoint" />
          </mxGeometry>
        </mxCell>
        <mxCell id="lBluYYS4-ISNcS1CGL36-9" value="Send Email" style="edgeLabel;html=1;align=center;verticalAlign=middle;resizable=0;points=[];" vertex="1" connectable="0" parent="lBluYYS4-ISNcS1CGL36-8">
          <mxGeometry x="-0.2725" y="-1" relative="1" as="geometry">
            <mxPoint x="10" as="offset" />
          </mxGeometry>
        </mxCell>
        <mxCell id="-Si1qEhgWz94pLlsSCn9-110" value="Production&amp;nbsp;&lt;div&gt;Support&amp;nbsp;&lt;span style=&quot;background-color: transparent; color: light-dark(rgb(0, 0, 0), rgb(255, 255, 255));&quot;&gt;User&lt;/span&gt;&lt;/div&gt;" style="shape=umlActor;verticalLabelPosition=bottom;verticalAlign=top;html=1;outlineConnect=0;fillColor=#FFFF99;" parent="1" vertex="1">
          <mxGeometry x="90" y="497.5" width="30" height="60" as="geometry" />
        </mxCell>
        <mxCell id="-Si1qEhgWz94pLlsSCn9-111" value="" style="edgeStyle=orthogonalEdgeStyle;rounded=0;orthogonalLoop=1;jettySize=auto;html=1;" parent="1" source="-Si1qEhgWz94pLlsSCn9-110" target="-Si1qEhgWz94pLlsSCn9-36" edge="1">
          <mxGeometry relative="1" as="geometry" />
        </mxCell>
        <mxCell id="lBluYYS4-ISNcS1CGL36-11" value="Client Support User" style="shape=umlActor;verticalLabelPosition=bottom;verticalAlign=top;html=1;outlineConnect=0;fillColor=#FFFF99;" vertex="1" parent="1">
          <mxGeometry x="300" y="90" width="30" height="60" as="geometry" />
        </mxCell>
        <mxCell id="lBluYYS4-ISNcS1CGL36-14" style="edgeStyle=orthogonalEdgeStyle;rounded=0;orthogonalLoop=1;jettySize=auto;html=1;entryX=0.5;entryY=0;entryDx=0;entryDy=0;entryPerimeter=0;" edge="1" parent="1" source="lBluYYS4-ISNcS1CGL36-11" target="-Si1qEhgWz94pLlsSCn9-34">
          <mxGeometry relative="1" as="geometry" />
        </mxCell>
        <mxCell id="lBluYYS4-ISNcS1CGL36-15" value="Serves Interface to Manually Capture the Incident&amp;nbsp;" style="edgeLabel;html=1;align=center;verticalAlign=middle;resizable=0;points=[];" vertex="1" connectable="0" parent="lBluYYS4-ISNcS1CGL36-14">
          <mxGeometry x="-0.5004" relative="1" as="geometry">
            <mxPoint x="101" as="offset" />
          </mxGeometry>
        </mxCell>
      </root>
    </mxGraphModel>
  </diagram>
</mxfile>
